HIERARCHY
ROOT RootJoint
{
    OFFSET   0.000000   0.000000   0.000000
    CHANNELS 6 Xposition Yposition Zposition Xrotation Yrotation Zrotation
    JOINT pelvis_lowerback
    {
        OFFSET   0.000000   0.093605   0.000000
        CHANNELS 3 Xrotation Yrotation Zrotation
        JOINT lowerback_torso
        {
            OFFSET   0.000000   0.100000   0.000000
            CHANNELS 3 Xrotation Yrotation Zrotation
            JOINT torso_head
            {
                OFFSET   0.000000   0.282350   0.000000
                CHANNELS 3 Xrotation Yrotation Zrotation
                End Site
                {
                    OFFSET   0.000000   0.192650   0.000000
                }
            }
            JOINT rTorso_Clavicle
            {
                OFFSET  -0.001000   0.157500   0.000000
                CHANNELS 3 Xrotation Yrotation Zrotation
                JOINT rShoulder
                {
                    OFFSET  -0.117647   0.000000   0.000000
                    CHANNELS 3 Xrotation Yrotation Zrotation
                    JOINT rElbow
                    {
                        OFFSET  -0.245000   0.000000   0.000000
                        CHANNELS 3 Xrotation Yrotation Zrotation
                        JOINT rWrist
                        {
                            OFFSET  -0.240000   0.000000   0.000000
                            CHANNELS 3 Xrotation Yrotation Zrotation
                            End Site
                            {
                                OFFSET  -0.116353  -0.002500   0.000000
                            }
                        }
                    }
                }
            }
            JOINT lTorso_Clavicle
            {
                OFFSET   0.001000   0.157500   0.000000
                CHANNELS 3 Xrotation Yrotation Zrotation
                JOINT lShoulder
                {
                    OFFSET   0.117647   0.000000   0.000000
                    CHANNELS 3 Xrotation Yrotation Zrotation
                    JOINT lElbow
                    {
                        OFFSET   0.245000   0.000000   0.000000
                        CHANNELS 3 Xrotation Yrotation Zrotation
                        JOINT lWrist
                        {
                            OFFSET   0.240000   0.000000   0.000000
                            CHANNELS 3 Xrotation Yrotation Zrotation
                            End Site
                            {
                                OFFSET   0.116353  -0.002500   0.000000
                            }
                        }
                    }
                }
            }
        }
    }
    JOINT rHip
    {
        OFFSET  -0.100000  -0.051395   0.000000
        CHANNELS 3 Xrotation Yrotation Zrotation
        JOINT rKnee
        {
            OFFSET   0.000000  -0.410000   0.000000
            CHANNELS 3 Xrotation Yrotation Zrotation
            JOINT rAnkle
            {
                OFFSET   0.000000  -0.390000   0.000000
                CHANNELS 3 Xrotation Yrotation Zrotation
                JOINT rToeJoint
                {
                    OFFSET   0.000000  -0.050000   0.130000
                    CHANNELS 3 Xrotation Yrotation Zrotation
                    End Site
                    {
                        OFFSET  -0.010000   0.002000   0.060000
                    }
                }
            }
        }
    }
    JOINT lHip
    {
        OFFSET   0.100000  -0.051395   0.000000
        CHANNELS 3 Xrotation Yrotation Zrotation
        JOINT lKnee
        {
            OFFSET   0.000000  -0.410000   0.000000
            CHANNELS 3 Xrotation Yrotation Zrotation
            JOINT lAnkle
            {
                OFFSET   0.000000  -0.390000   0.000000
                CHANNELS 3 Xrotation Yrotation Zrotation
                JOINT lToeJoint
                {
                    OFFSET   0.000000  -0.050000   0.130000
                    CHANNELS 3 Xrotation Yrotation Zrotation
                    End Site
                    {
                        OFFSET   0.010000   0.002000   0.060000
                    }
                }
            }
        }
    }
}
MOTION
Frames: 15
Frame Time:   0.008333
 -2.459980   0.913466   4.186106  -4.046569 -17.419398  -1.884356  10.337271   2.635628   0.329932   1.452048   1.537519   1.899056  -2.299656  -0.861692   2.637983   1.810937   7.780595   7.084224  -0.140907  12.618415  56.882863   0.001288  64.451838  -0.000907  -1.562207   2.404967  -7.813005   2.489324  -0.402580  -4.501092   5.795642 -11.129175 -49.153434 179.995472 -71.376211 179.996961   0.852338  -5.455066   8.674359   7.537987  -3.528571   0.137005  11.023020   0.000690  -0.000096 -10.915980  -1.891732   0.861856  -5.978166  -0.000344   0.003245  -5.717403  -4.554796  -0.028251  18.178185  -0.001916   0.000154  -8.562050   4.087043   2.294986  -0.559707  -0.000456  -0.000063
 -2.459589   0.913860   4.187860  -4.040908 -17.342101  -1.813509  10.237778   2.593677   0.230525   1.372697   1.552004   1.853564  -2.288420  -0.833171   2.700847   1.801347   7.651240   7.178134   0.011200  12.582669  56.871078   0.001313  64.293128  -0.000965  -1.574483   2.451550  -7.873863   2.512840  -0.377189  -4.583710   5.809274 -11.105643 -49.213782 179.994253 -71.692004 179.995976   0.790226  -5.474115   8.769483   7.302084  -3.643826   0.018297  11.693884   0.000779  -0.000304 -10.868474  -2.036920   0.956866  -6.644882  -0.000240   0.003668  -5.433881  -4.604235  -0.164410  17.776642  -0.001833   0.000129  -8.455567   4.079510   2.464588  -0.400584  -0.000482  -0.000050
 -2.459192   0.914215   4.189610  -4.045582 -17.239564  -1.744486  10.146783   2.543956   0.143337   1.303708   1.558713   1.805651  -2.278126  -0.805979   2.762367   1.807381   7.516315   7.262945   0.166614  12.540735  56.858344   0.001285  64.142257  -0.000970  -1.586426   2.496512  -7.940351   2.539421  -0.349363  -4.682789   5.823857 -11.082318 -49.283395 179.993279 -71.990422 179.995221   0.727272  -5.481171   8.890704   7.064974  -3.755457  -0.102006  12.370292   0.000893  -0.000319 -10.823483  -2.172990   1.003260  -7.293168  -0.000438   0.003742  -5.150274  -4.665882  -0.301368  17.390337  -0.001760   0.000060  -8.355883   4.057732   2.623727  -0.254094  -0.000481  -0.000040
 -2.458823   0.914528   4.191338  -4.052524 -17.130584  -1.678245  10.057937   2.496086   0.060737   1.242424   1.562323   1.758429  -2.268776  -0.780406   2.820668   1.822145   7.383361   7.342387   0.319559  12.497118  56.846734   0.001220  63.998734  -0.000935  -1.599634   2.526778  -8.004310   2.568639  -0.320398  -4.782842   5.840775 -11.059710 -49.352790 179.992628 -72.269980 179.994717   0.665410  -5.481843   9.010359   6.848479  -3.867360  -0.219074  13.032309   0.000983  -0.000305 -10.780226  -2.313099   1.088937  -7.955438  -0.000395   0.003843  -4.876830  -4.729986  -0.432817  17.027410  -0.001675  -0.000013  -8.268064   4.029882   2.770851  -0.119804  -0.000462  -0.000031
 -2.458479   0.914803   4.193027  -4.057915 -17.024796  -1.613556   9.972480   2.452423  -0.019101   1.185831   1.565798   1.711646  -2.260568  -0.756383   2.875002   1.840507   7.256236   7.417072   0.466223  12.454361  56.836357   0.001135  63.863215  -0.000877  -1.613619   2.546118  -8.063928   2.598515  -0.291155  -4.879170   5.858678 -11.037697 -49.419177 179.992278 -72.531394 179.994438   0.605360  -5.479436   9.125305   6.647433  -3.974340  -0.332357  13.654902   0.001031  -0.000286 -10.732456  -2.446500   1.167943  -8.598283  -0.000394   0.003858  -4.617898  -4.792240  -0.558849  16.687901  -0.001579  -0.000070  -8.191516   4.001373   2.908045  -0.129764  -0.000364  -0.000025
 -2.458156   0.915044   4.194669  -4.060852 -16.924802  -1.550395   9.891314   2.412707  -0.096126   1.133142   1.569727   1.665747  -2.253215  -0.733869   2.925446   1.859750   7.136357   7.487323   0.604862  12.413577  56.827036   0.001039  63.735935  -0.000805  -1.627758   2.559285  -8.119528   2.627923  -0.262443  -4.970491   5.876671 -11.016459 -49.481794 179.992180 -72.775702 179.994348   0.547360  -5.475392   9.235665   6.459564  -4.076038  -0.441734  14.239220   0.001043  -0.000275 -10.682715  -2.573060   1.240878  -9.211947  -0.000416   0.003803  -4.373896  -4.851544  -0.679297  16.370211  -0.001476  -0.000111  -8.124688   3.973846   3.035440  -0.136385  -0.000289  -0.000020
 -2.457854   0.915256   4.196262  -4.060840 -16.831279  -1.488987   9.814670   2.376461  -0.169876   1.083910   1.574097   1.621283  -2.246492  -0.712803   2.972283   1.878559   7.024057   7.553384   0.734915  12.375195  56.818624   0.000941  63.616783  -0.000729  -1.641654   2.569389  -8.171733   2.656305  -0.234794  -5.056578   5.894264 -10.996195 -49.540566 179.992284 -73.003947 179.994410   0.491474  -5.470495   9.341525   6.283593  -4.172277  -0.546929  14.786333   0.001027  -0.000270 -10.633016  -2.692648   1.308308  -9.787452  -0.000446   0.003686  -4.144531  -4.907599  -0.793944  16.072464  -0.001371  -0.000137  -8.066222   3.947818   3.153836  -0.140461  -0.000229  -0.000016
 -2.457550   0.915444   4.197709  -4.039218 -16.802783  -1.423177   9.750135   2.339109  -0.258107   1.026290   1.620586   1.580533  -2.248992  -0.699218   3.017628   1.895922   6.883895   7.633012   0.917545  12.341853  56.799957   0.000750  63.619709  -0.000581  -1.657355   2.586207  -8.246238   2.689659  -0.162808  -5.164593   5.904625 -10.929933 -49.648518 179.991730 -73.256951 179.994016   0.429425  -5.515698   9.467593   5.884627  -4.287039  -0.663455  15.693039   0.000893  -0.000937 -10.557063  -2.828962   1.446269 -10.731087  -0.000096   0.004981  -3.946103  -4.914086  -0.903734  15.787173  -0.001272  -0.000122  -8.018011   3.935532   3.300628  -0.134534  -0.000187  -0.000013
 -2.457278   0.915614   4.199154  -4.042163 -16.759269  -1.370162   9.700937   2.291288  -0.339545   0.991626   1.659901   1.539655  -2.249195  -0.687379   3.061350   1.926660   6.739230   7.709688   1.099584  12.305550  56.786473   0.000596  63.625689  -0.000459  -1.668619   2.634111  -8.316774   2.733386  -0.083317  -5.279841   5.924267 -10.860033 -49.757153 179.991421 -73.499456 179.993850   0.363918  -5.529232   9.612246   5.492198  -4.400632  -0.772128  16.607143   0.000771  -0.001364 -10.484802  -2.956877   1.514656 -11.609221  -0.000355   0.005628  -3.732133  -4.930387  -1.005492  15.521204  -0.001175  -0.000124  -7.980025   3.917024   3.438829  -0.127430  -0.000154  -0.000010
 -2.457041   0.915767   4.200596  -4.055021 -16.706994  -1.325363   9.656235   2.242905  -0.416943   0.969863   1.693403   1.499110  -2.248226  -0.676531   3.102509   1.966595   6.595763   7.783339   1.278887  12.266918  56.775703   0.000474  63.628829  -0.000365  -1.680437   2.674436  -8.381753   2.782332  -0.003353  -5.393974   5.949502 -10.791804 -49.861891 179.991340 -73.728322 179.993857   0.297706  -5.524280   9.749299   5.124770  -4.512128  -0.873461  17.492526   0.000669  -0.001615 -10.412684  -3.082729   1.577044 -12.372581  -0.000574   0.005847  -3.517229  -4.952145  -1.099036  15.274644  -0.001081  -0.000134  -7.951543   3.893951   3.567226  -0.119857  -0.000128  -0.000008
 -2.456853   0.915908   4.202014  -4.067553 -16.646441  -1.286438   9.612111   2.195294  -0.492679   0.953572   1.722355   1.459541  -2.247281  -0.666504   3.141027   2.011702   6.456619   7.854570   1.452755  12.227740  56.767435   0.000379  63.629466  -0.000292  -1.693535   2.701570  -8.441054   2.832430   0.074494  -5.503114   5.976947 -10.726403 -49.960699 179.991427 -73.943247 179.993974   0.232409  -5.510290   9.877031   4.789090  -4.613250  -0.969035  18.341476   0.000632  -0.001674 -10.339769  -3.200293   1.693305 -13.022904  -0.000419   0.005745  -3.311576  -4.979187  -1.182373  15.045507  -0.000986  -0.000150  -7.930295   3.866332   3.686547  -0.111710  -0.000106  -0.000006
 -2.456686   0.916032   4.203400  -4.078854 -16.587800  -1.249015   9.571733   2.151878  -0.567334   0.940529   1.749617   1.418740  -2.246565  -0.657035   3.176300   2.057417   6.324574   7.921230   1.618122  12.189670  56.760149   0.000304  63.628822  -0.000233  -1.707319   2.719288  -8.495456   2.881306   0.148898  -5.606405   6.004386 -10.664457 -50.053694 179.991666 -74.144357 179.994190   0.168873  -5.492715   9.998973   4.470493  -4.708203  -1.059052  19.125018   0.000575  -0.001662 -10.267395  -3.307698   1.746520 -13.585023  -0.000570   0.005387  -3.115667  -5.005990  -1.261506  14.830952  -0.000898  -0.000159  -7.914297   3.839441   3.797884  -0.103501  -0.000089  -0.000005
 -2.456536   0.916142   4.204755  -4.088522 -16.531389  -1.213470   9.534352   2.111687  -0.640025   0.930103   1.775225   1.377818  -2.245746  -0.648133   3.208777   2.102042   6.200091   7.983615   1.774136  12.153241  56.753456   0.000243  63.627451  -0.000187  -1.721258   2.731153  -8.546205   2.928342   0.219400  -5.703901   6.031240 -10.606094 -50.140933 179.992021 -74.332430 179.994479   0.107395  -5.473636  10.115304   4.171061  -4.799202  -1.144981  19.862935   0.000519  -0.001623 -10.195906  -3.411372   1.795792 -14.065097  -0.000663   0.004959  -2.929175  -5.032298  -1.336136  14.629975  -0.000815  -0.000162  -7.903146   3.813414   3.901498  -0.095474  -0.000075  -0.000004
 -2.456400   0.916187   4.205982  -4.117771 -16.510138  -1.194032   9.536768   2.065201  -0.720166   0.929618   1.828216   1.352290  -2.262942  -0.643672   3.230836   2.144055   6.046155   8.058602   1.950100  12.074464  56.734053  -0.000033  63.822665   0.000137  -1.746816   2.710811  -8.590071   2.969114   0.305253  -5.806100   6.027513 -10.495155 -50.262307 179.991328 -74.594606 179.993964   0.049688  -5.524715  10.217298   3.697184  -4.912265  -1.243400  20.971369   0.000314  -0.002323 -10.061588  -3.506876   1.982414 -14.904809  -0.000094   0.005789  -2.767127  -5.013089  -1.398774  14.514144  -0.000707  -0.000161  -7.938673   3.776933   4.029643  -0.080325  -0.000070  -0.000003
 -2.456311   0.916214   4.207243  -4.179144 -16.464495  -1.188903   9.551077   2.005723  -0.796291   0.951615   1.868648   1.328062  -2.274968  -0.639966   3.253321   2.194572   5.886431   8.130718   2.122406  11.995318  56.718989  -0.000270  64.012408   0.000412  -1.764471   2.749262  -8.644526   3.016227   0.393975  -5.910351   6.031890 -10.382363 -50.377410 179.990863 -74.850787 179.993637  -0.015208  -5.520235  10.338317   3.243557  -5.016478  -1.335449  22.087394   0.000211  -0.002598  -9.932754  -3.588889   2.094370 -15.691928  -0.000135   0.005933  -2.584575  -5.008910  -1.453849  14.427081  -0.000605  -0.000159  -7.990337   3.730998   4.147835  -0.066073  -0.000065  -0.000002
